<svg style="position: absolute; width: 0; height: 0;" width="0" height="0" version="1.1" xmlns="http://www.w3.org/2000/svg" xmlns:xlink="http://www.w3.org/1999/xlink">
<defs>

<symbol id="icon_person" viewBox="0 0 1024 1024">
	<title>person</title>
	<path class="path1" d="M512 598q108 0 225 47t117 123v86h-684v-86q0-76 117-123t225-47zM512 512q-70 0-120-50t-50-120 50-121 120-51 120 51 50 121-50 120-120 50z"></path>
</symbol>

<symbol id="icon_replace" viewBox="0 0 1024 1024">
	<title>replace</title>
	<path class="path1" d="M682 726h128l-170 170-170-170h128v-300h84v300zM384 128l170 170h-128v300h-84v-300h-128z"></path>
</symbol>

<symbol id="icon_add_list" viewBox="0 0 1024 1024">
	<title>add_list</title>
	<path class="path1" d="M86 682v-84h340v84h-340zM768 598h170v84h-170v172h-86v-172h-170v-84h170v-172h86v172zM598 256v86h-512v-86h512zM598 426v86h-512v-86h512z"></path>
</symbol>

<symbol id="icon_group" viewBox="0 0 1024 1024">
	<title>group</title>
	<path class="path1" d="M682 554q56 0 122 16t122 52 56 82v106h-256v-106q0-88-84-148 14-2 40-2zM342 554q56 0 122 16t121 52 55 82v106h-598v-106q0-46 56-82t122-52 122-16zM342 470q-52 0-90-38t-38-90 38-90 90-38 89 38 37 90-37 90-89 38zM682 470q-52 0-90-38t-38-90 38-90 90-38 90 38 38 90-38 90-90 38z"></path>
</symbol>

<symbol id="icon_notification" viewBox="0 0 1024 1024">
	<title>notification</title>
	<path class="path1" d="M682 726v-256q0-82-46-137t-124-55-124 55-46 137v256h340zM768 682l86 86v42h-684v-42l86-86v-212q0-100 51-174t141-96v-30q0-26 18-45t46-19 46 19 18 45v30q90 22 141 96t51 174v212zM512 938q-34 0-60-25t-26-59h172q0 34-26 59t-60 25z"></path>
</symbol>

<symbol id="icon_trash" viewBox="0 0 1024 1024">
	<title>trash</title>
	<path class="path1" d="M810 170v86h-596v-86h148l44-42h212l44 42h148zM256 810v-512h512v512q0 34-26 60t-60 26h-340q-34 0-60-26t-26-60z"></path>
</symbol>

<symbol id="icon_blog" viewBox="0 0 1024 1024">
<title>blog</title>
<path class="path1" d="M768 598v-86h-234l-86 86h320zM256 598h106l294-294q16-16 0-30l-76-76q-16-14-30 0l-294 294v106zM854 86q34 0 59 25t25 59v512q0 34-25 60t-59 26h-598l-170 170v-768q0-34 25-59t59-25h684z"></path>
</symbol>

<symbol id="icon_eye" viewBox="0 0 1024 1024">
	<title>eye</title>
	<path class="path1" d="M512 384q52 0 90 38t38 90-38 90-90 38-90-38-38-90 38-90 90-38zM512 726q88 0 151-63t63-151-63-151-151-63-151 63-63 151 63 151 151 63zM512 192q158 0 286 88t184 232q-56 144-184 232t-286 88-286-88-184-232q56-144 184-232t286-88z"></path>
</symbol>

<symbol id="icon_search" viewBox="0 0 1024 1024">
	<title>search</title>
	<path class="path1" d="M406 598q80 0 136-56t56-136-56-136-136-56-136 56-56 136 56 136 136 56zM662 598l212 212-64 64-212-212v-34l-12-12q-76 66-180 66-116 0-197-80t-81-196 81-197 197-81 196 81 80 197q0 104-66 180l12 12h34z"></path>
</symbol>

<symbol id="icon_sort" viewBox="0 0 1024 1024">
	<title>sort</title>
	<path class="path1" d="M512 776l136-136 60 60-196 196-196-196 60-60zM512 248l-136 136-60-60 196-196 196 196-60 60z"></path>
</symbol>

<symbol id="icon_help" viewBox="0 0 1024 1024">
	<title>help</title>
	<path class="path1" d="M512 256q70 0 120 50t50 120q0 54-64 111t-64 103h-84q0-46 20-79t44-48 44-37 20-50q0-34-26-59t-60-25-60 25-26 59h-84q0-70 50-120t120-50zM512 854q140 0 241-101t101-241-101-241-241-101-241 101-101 241 101 241 241 101zM512 86q176 0 301 125t125 301-125 301-301 125-301-125-125-301 125-301 301-125zM470 768v-86h84v86h-84z"></path>
</symbol>

<symbol id="icon_tune" viewBox="0 0 1024 1024">
	<title>tune</title>
	<path class="path1" d="M640 384v-256h86v86h170v84h-170v86h-86zM896 554h-426v-84h426v84zM298 384h86v256h-86v-86h-170v-84h170v-86zM554 896h-84v-256h84v86h342v84h-342v86zM128 214h426v84h-426v-84zM128 726h256v84h-256v-84z"></path>
</symbol>

<symbol id="icon_upload" viewBox="0 0 1024 1024">
	<title>upload</title>
	<path  class="path1" d="M214 768h596v86h-596v-86zM384 682v-256h-170l298-298 298 298h-170v256h-256z"></path>
</symbol>

<symbol id="icon_exit" viewBox="0 0 1024 1024">
	<title>exit</title>
	<path class="path1" d="M810 128q34 0 60 26t26 60v596q0 34-26 60t-60 26h-596q-36 0-61-26t-25-60v-170h86v170h596v-596h-596v170h-86v-170q0-34 25-60t61-26h596zM430 666l110-112h-412v-84h412l-110-112 60-60 214 214-214 214z"></path>
</symbol>

<symbol id="icon_chevron_up" viewBox="0 0 1024 1024">
	<title>chevron_up</title>
	<path class="path1" d="M512 342l256 256-60 60-196-196-196 196-60-60z"></path>
</symbol>

<symbol id="icon_check" viewBox="0 0 1024 1024">
	<title>check</title>
	<path class="path1" d="M384 690l452-452 60 60-512 512-238-238 60-60z"></path>
</symbol>

<symbol id="icon_settings" viewBox="0 0 1024 1024">
	<title>settings</title>
	<path class="path1" d="M512 662q62 0 106-44t44-106-44-106-106-44-106 44-44 106 44 106 106 44zM830 554l90 70q14 10 4 28l-86 148q-8 14-26 8l-106-42q-42 30-72 42l-16 112q-4 18-20 18h-172q-16 0-20-18l-16-112q-38-16-72-42l-106 42q-18 6-26-8l-86-148q-10-18 4-28l90-70q-2-14-2-42t2-42l-90-70q-14-10-4-28l86-148q8-14 26-8l106 42q42-30 72-42l16-112q4-18 20-18h172q16 0 20 18l16 112q38 16 72 42l106-42q18-6 26 8l86 148q10 18-4 28l-90 70q2 14 2 42t-2 42z"></path>
</symbol>

<symbol id="icon_chevron_down" viewBox="0 0 1024 1024">
	<title>chevron_down</title>
	<path class="path1" d="M708 366l60 60-256 256-256-256 60-60 196 196z"></path>
</symbol>

<symbol id="icon_chevron_left" viewBox="0 0 1024 1024">
	<title>chevron_left</title>
	<path class="path1" d="M658 686l-60 60-256-256 256-256 60 60-196 196z"></path>
</symbol>

<symbol id="icon_chevron_right" viewBox="0 0 1024 1024">
	<title>chevron_right</title>
	<path class="path1" d="M366 698l196-196-196-196 60-60 256 256-256 256z"></path>
</symbol>

<symbol id="icon_extras" viewBox="0 0 1024 1024">
	<title>extras</title>
	<path class="path1" d="M896 224h-768v-96h768zM608 416h-480v-96h480zM896 608h-768v-96h768zM128 848c0-26.51 21.49-48 48-48s48 21.49 48 48c0 26.51-21.49 48-48 48s-48-21.49-48-48zM512 848c0-26.51 21.49-48 48-48s48 21.49 48 48c0 26.51-21.49 48-48 48s-48-21.49-48-48zM320 848c0-26.51 21.49-48 48-48s48 21.49 48 48c0 26.51-21.49 48-48 48s-48-21.49-48-48z"></path>
</symbol>

<symbol id="icon_category" viewBox="0 0 1024 1024">
	<title>category</title>
	<path class="path1" d="M128 214h810v256h-810v-256zM426 810v-298h512v298h-512zM128 810v-298h256v298h-256z"></path>
</symbol>

<symbol id="icon_subcategory" viewBox="0 0 1024 1024">
	<title>subcategory</title>
	<path class="path1" d="M768 214h170v170h-170v-170zM768 810v-170h170v170h-170zM554 810v-170h172v170h-172zM342 810v-170h170v170h-170zM128 810v-170h170v170h-170zM768 598v-172h170v172h-170zM554 214h172v170h-172v-170zM342 384v-170h170v170h-170zM554 598v-172h172v172h-172zM342 598v-172h170v172h-170zM128 598v-172h170v172h-170zM128 384v-170h170v170h-170z"></path>
</symbol>

<symbol id="icon_image" viewBox="0 0 1024 1024">
	<title>image</title>
	<path class="path1" d="M362 576l-148 192h596l-192-256-148 192zM896 810q0 34-26 60t-60 26h-596q-34 0-60-26t-26-60v-596q0-34 26-60t60-26h596q34 0 60 26t26 60v596z"></path>
</symbol>

<symbol id="icon_product" viewBox="0 0 1024 1024">
	<title>product</title>
	<path class="path1" d="M942.029 358.4h-256.358l-92.774 92.774c-23.194 23.194-54.067 35.942-86.835 35.942-32.87 0-63.693-12.8-86.938-35.994-23.142-23.142-35.942-53.965-35.994-86.784 0-1.997 0.512-3.942 0.563-5.939h-301.773c-16.998 0-30.72 13.722-30.72 30.72v122.88h921.6v-122.88c0-16.998-13.824-30.72-30.771-30.72zM551.322 409.549l258.816-258.816c12.032-11.981 12.134-31.386 0.102-43.469l-47.104-47.104c-11.981-11.981-31.437-11.93-43.52 0l-258.816 258.867c-24.986 24.986-24.986 65.536 0 90.522 24.986 24.934 65.485 24.986 90.522 0zM195.738 884.275c4.966 20.531 26.368 37.325 47.462 37.325h537.6c21.094 0 42.496-16.794 47.462-37.325l77.978-321.075h-788.48l77.978 321.075z"></path>
</symbol>

<symbol id="icon_home" viewBox="0 0 1024 1024">
	<title>home</title>
	<path class="path1" d="M426 854h-212v-342h-128l426-384 426 384h-128v342h-212v-256h-172v256z"></path>
</symbol>

<symbol id="icon_key" viewBox="0 0 1024 1024">
	<title>key</title>
	<path class="path1" d="M298 598q34 0 60-26t26-60-26-60-60-26-59 26-25 60 25 60 59 26zM540 426h442v172h-86v170h-170v-170h-186q-26 76-92 123t-150 47q-106 0-181-75t-75-181 75-181 181-75q84 0 150 47t92 123z"></path>
</symbol>

<symbol id="icon_move" viewBox="0 0 1024 1024">
	<title>move</title>
	<path class="path1" d="M598 640v128h128l-214 214-214-214h128v-128h172zM982 512l-214 214v-128h-128v-172h128v-128zM384 426v172h-128v128l-214-214 214-214v128h128zM426 384v-128h-128l214-214 214 214h-128v128h-172z"></path>
</symbol>

<symbol id="icon_close" viewBox="0 0 1024 1024">
	<title>close</title>
	<path class="path1" d="M810 274l-238 238 238 238-60 60-238-238-238 238-60-60 238-238-238-238 60-60 238 238 238-238z"></path>
</symbol>

<symbol id="icon_error" viewBox="0 0 1024 1024">
	<title>error</title>
	<path class="path1" d="M512 854q140 0 241-101t101-241-101-241-241-101-241 101-101 241 101 241 241 101zM512 86q176 0 301 125t125 301-125 301-301 125-301-125-125-301 125-301 301-125zM470 298h84v256h-84v-256zM470 640h84v86h-84v-86z"></path>
</symbol>

<symbol id="icon_menu" viewBox="0 0 1024 1024">
	<title>menu</title>
	<path class="path1" d="M128 256h768v86h-768v-86zM128 554v-84h768v84h-768zM128 768v-86h768v86h-768z"></path>
</symbol>

<symbol id="icon_person" viewBox="0 0 1024 1024">
	<title>person</title>
	<path class="path1" d="M512 554q64 0 140 18t139 60 63 94v128h-684v-128q0-52 63-94t139-60 140-18zM512 170q70 0 120 51t50 121-50 120-120 50-120-50-50-120 50-121 120-51zM512 636q-88 0-174 33t-86 57v46h520v-46q0-24-86-57t-174-33zM512 252q-38 0-64 26t-26 64 26 63 64 25 64-25 26-63-26-64-64-26z"></path>
</symbol>

<symbol id="icon_https" viewBox="0 0 1024 1024">
	<title>https</title>
	<path class="path1" d="M644 342v-86q0-54-39-93t-93-39-93 39-39 93v86h264zM512 726q34 0 60-26t26-60-26-60-60-26-60 26-26 60 26 60 60 26zM768 342q34 0 60 25t26 59v428q0 34-26 59t-60 25h-512q-34 0-60-25t-26-59v-428q0-34 26-59t60-25h42v-86q0-88 63-151t151-63 151 63 63 151v86h42z"></path>
</symbol>
<symbol id="icon-user-tie" viewBox="0 0 16 16">
	<title>user-tie</title>
	<path class="path1" d="M5 3c0-1.657 1.343-3 3-3s3 1.343 3 3c0 1.657-1.343 3-3 3s-3-1.343-3-3zM12.001 7h-0.553l-3.111 6.316 1.163-5.816-1.5-1.5-1.5 1.5 1.163 5.816-3.111-6.316h-0.554c-1.999 0-1.999 1.344-1.999 3v5h12v-5c0-1.656 0-3-1.999-3z"></path>
</symbol>
<symbol id="icon-location" viewBox="0 0 32 32">
	<title>location</title>
	<path class="path1" d="M16 0c-5.523 0-10 4.477-10 10 0 10 10 22 10 22s10-12 10-22c0-5.523-4.477-10-10-10zM16 16c-3.314 0-6-2.686-6-6s2.686-6 6-6 6 2.686 6 6-2.686 6-6 6z"></path>
</symbol>
</defs>
</svg>
